<mxfile host="app.diagrams.net" agent="Mozilla/5.0 (Windows NT 10.0; Win64; x64) AppleWebKit/537.36 (KHTML, like Gecko) Chrome/127.0.0.0 Safari/537.36" version="24.7.7">
  <diagram name="Page-1" id="zuuopOfa9b7sefYAr8XB">
    <mxGraphModel dx="1050" dy="557" grid="1" gridSize="10" guides="1" tooltips="1" connect="1" arrows="1" fold="1" page="1" pageScale="1" pageWidth="850" pageHeight="1100" math="0" shadow="0">
      <root>
        <mxCell id="0" />
        <mxCell id="1" parent="0" />
        <mxCell id="2M7IVyNe9yeB_Audw4a8-1" style="edgeStyle=orthogonalEdgeStyle;rounded=0;orthogonalLoop=1;jettySize=auto;html=1;exitX=0.5;exitY=1;exitDx=0;exitDy=0;" edge="1" parent="1" source="2M7IVyNe9yeB_Audw4a8-2" target="2M7IVyNe9yeB_Audw4a8-5">
          <mxGeometry relative="1" as="geometry" />
        </mxCell>
        <mxCell id="2M7IVyNe9yeB_Audw4a8-2" value="Mulai" style="ellipse;whiteSpace=wrap;html=1;" vertex="1" parent="1">
          <mxGeometry x="362.5" width="120" height="60" as="geometry" />
        </mxCell>
        <mxCell id="2M7IVyNe9yeB_Audw4a8-3" value="Selesai" style="ellipse;whiteSpace=wrap;html=1;" vertex="1" parent="1">
          <mxGeometry x="362.5" y="680" width="120" height="60" as="geometry" />
        </mxCell>
        <mxCell id="2M7IVyNe9yeB_Audw4a8-4" style="edgeStyle=orthogonalEdgeStyle;rounded=0;orthogonalLoop=1;jettySize=auto;html=1;exitX=0.5;exitY=1;exitDx=0;exitDy=0;" edge="1" parent="1" source="2M7IVyNe9yeB_Audw4a8-5" target="2M7IVyNe9yeB_Audw4a8-7">
          <mxGeometry relative="1" as="geometry" />
        </mxCell>
        <mxCell id="2M7IVyNe9yeB_Audw4a8-5" value="Tampilkan&lt;div&gt;&lt;span style=&quot;background-color: initial;&quot;&gt;Edit Data&lt;/span&gt;&lt;/div&gt;" style="rounded=0;whiteSpace=wrap;html=1;" vertex="1" parent="1">
          <mxGeometry x="362.5" y="100" width="120" height="60" as="geometry" />
        </mxCell>
        <mxCell id="2M7IVyNe9yeB_Audw4a8-6" style="edgeStyle=orthogonalEdgeStyle;rounded=0;orthogonalLoop=1;jettySize=auto;html=1;exitX=0.5;exitY=1;exitDx=0;exitDy=0;entryX=0.5;entryY=0;entryDx=0;entryDy=0;" edge="1" parent="1" source="2M7IVyNe9yeB_Audw4a8-7" target="2M7IVyNe9yeB_Audw4a8-12">
          <mxGeometry relative="1" as="geometry" />
        </mxCell>
        <mxCell id="2M7IVyNe9yeB_Audw4a8-7" value="Input data baru" style="shape=parallelogram;perimeter=parallelogramPerimeter;whiteSpace=wrap;html=1;fixedSize=1;" vertex="1" parent="1">
          <mxGeometry x="362.5" y="200" width="120" height="60" as="geometry" />
        </mxCell>
        <mxCell id="2M7IVyNe9yeB_Audw4a8-8" style="edgeStyle=orthogonalEdgeStyle;rounded=0;orthogonalLoop=1;jettySize=auto;html=1;exitX=0.5;exitY=1;exitDx=0;exitDy=0;" edge="1" parent="1" source="2M7IVyNe9yeB_Audw4a8-12" target="2M7IVyNe9yeB_Audw4a8-14">
          <mxGeometry relative="1" as="geometry" />
        </mxCell>
        <mxCell id="2M7IVyNe9yeB_Audw4a8-9" value="Ya" style="edgeLabel;html=1;align=center;verticalAlign=middle;resizable=0;points=[];" vertex="1" connectable="0" parent="2M7IVyNe9yeB_Audw4a8-8">
          <mxGeometry x="-0.1538" y="-3" relative="1" as="geometry">
            <mxPoint as="offset" />
          </mxGeometry>
        </mxCell>
        <mxCell id="2M7IVyNe9yeB_Audw4a8-10" style="edgeStyle=orthogonalEdgeStyle;rounded=0;orthogonalLoop=1;jettySize=auto;html=1;exitX=0;exitY=0.5;exitDx=0;exitDy=0;entryX=0;entryY=0.5;entryDx=0;entryDy=0;" edge="1" parent="1" source="2M7IVyNe9yeB_Audw4a8-12" target="2M7IVyNe9yeB_Audw4a8-2">
          <mxGeometry relative="1" as="geometry">
            <Array as="points">
              <mxPoint x="280" y="370" />
              <mxPoint x="280" y="30" />
            </Array>
          </mxGeometry>
        </mxCell>
        <mxCell id="2M7IVyNe9yeB_Audw4a8-11" value="Tidak" style="edgeLabel;html=1;align=center;verticalAlign=middle;resizable=0;points=[];" vertex="1" connectable="0" parent="2M7IVyNe9yeB_Audw4a8-10">
          <mxGeometry x="-0.005" y="1" relative="1" as="geometry">
            <mxPoint as="offset" />
          </mxGeometry>
        </mxCell>
        <mxCell id="2M7IVyNe9yeB_Audw4a8-12" value="Ubah data?" style="rhombus;whiteSpace=wrap;html=1;" vertex="1" parent="1">
          <mxGeometry x="360" y="320" width="125" height="100" as="geometry" />
        </mxCell>
        <mxCell id="2M7IVyNe9yeB_Audw4a8-13" value="" style="edgeStyle=orthogonalEdgeStyle;rounded=0;orthogonalLoop=1;jettySize=auto;html=1;" edge="1" parent="1" source="2M7IVyNe9yeB_Audw4a8-14" target="2M7IVyNe9yeB_Audw4a8-16">
          <mxGeometry relative="1" as="geometry" />
        </mxCell>
        <mxCell id="2M7IVyNe9yeB_Audw4a8-14" value="Update data lama" style="rounded=0;whiteSpace=wrap;html=1;" vertex="1" parent="1">
          <mxGeometry x="362.5" y="490" width="120" height="60" as="geometry" />
        </mxCell>
        <mxCell id="2M7IVyNe9yeB_Audw4a8-15" value="" style="edgeStyle=orthogonalEdgeStyle;rounded=0;orthogonalLoop=1;jettySize=auto;html=1;" edge="1" parent="1" source="2M7IVyNe9yeB_Audw4a8-16" target="2M7IVyNe9yeB_Audw4a8-3">
          <mxGeometry relative="1" as="geometry" />
        </mxCell>
        <mxCell id="2M7IVyNe9yeB_Audw4a8-16" value="Operasi ke database" style="rounded=0;whiteSpace=wrap;html=1;" vertex="1" parent="1">
          <mxGeometry x="362.5" y="580" width="120" height="60" as="geometry" />
        </mxCell>
      </root>
    </mxGraphModel>
  </diagram>
</mxfile>
